name processed_emg_signals
nRows=58
nColumns=7
 
endheader
time	RGLTMED	RRF	RADDLONG	RST	RTA	RGM
1.455	0.3381396861445793	0.2966878414351367	0.2602774678507263	0.1820172790240763	0.0405175514275972	0.17277836506791
1.456	0.3346734607665622	0.2948676044762818	0.2606659990024343	0.1784283011102839	0.0424092075367779	0.1726829563402431
1.457	0.331273294950944	0.293067086697272	0.2611219450651855	0.1748932693452173	0.0442976606667131	0.1725625091012706
1.458	0.3279384819094647	0.2912861585805734	0.2616447970533614	0.1714128425084113	0.0461814210229229	0.1724182192143676
1.459	0.3246682730203288	0.2895247162411764	0.262233975112801	0.1679876719686777	0.0480590642402319	0.1722513326178339
1.46	0.3214618803866786	0.2877826814434915	0.2628888273675589	0.164618401230311	0.0499292309466572	0.1720631449100046
1.461	0.3183184793381965	0.2860600015315348	0.2636086288164193	0.1613056654777586	0.0517906262567788	0.1718550009168747
1.462	0.315237210873708	0.2843566492732264	0.2643925802870581	0.1580500911185508	0.0536420191968233	0.171628294243215
1.463	0.3122171840429617	0.282672622620055	0.265239807455685	0.1548522953237097	0.0554822420637792	0.1713844668080048
1.464	0.3092574782662238	0.2810079443844203	0.266149359940175	0.1517128855645629	0.0573101897207944	0.1711250083647967
1.465	0.3063571455910822	0.2793626618375509	0.2671202104742448	0.1486324591443711	0.0591248188312655	0.1708514560074817
1.466	0.3035152128864116	0.2777368462318882	0.2681512541703608	0.1456116027229079	0.0609251470340386	0.1705653936617894
1.467	0.3007306839735988	0.2761305922517961	0.2692413078786736	0.1426508918317019	0.0627102520623532	0.1702684515627958
1.468	0.2980025416951514	0.2745440173967665	0.2703891096494753	0.1397508903774203	0.0644792708093325	0.1699623057184097
1.469	0.2953297499205047	0.2729772613003282	0.2715933183066196	0.1369121501302975	0.0662313983430354	0.1696486773586076
1.47	0.2927112554885755	0.2714304849878694	0.2728525131392714	0.1341352101943851	0.0679658868742602	0.1693293323697247
1.471	0.2901459900860615	0.2699038700759139	0.2741651937193803	0.1314205964558291	0.0696820446803299	0.1690060807127551
1.472	0.2876328720598081	0.2683976179151933	0.275529779851531	0.1287688210054319	0.0713792349880901	0.1686807758243169
1.473	0.2851708081609768	0.266911948679188	0.2769446116619379	0.1261803815314043	0.0730568748192697	0.1683553139986587
1.474	0.282758695218046	0.2654471003998589	0.2784079498326093	0.1236557606783859	0.0747144338012982	0.1680316337489358
1.475	0.2803954217354928	0.2640033279513277	0.2799179759866602	0.121195425369043	0.0763514329465664	0.167711715145716
1.476	0.2780798694149122	0.2625809019830258	0.2814727932300565	0.1187998260853136	0.0779674434029898	0.1673975791305444
1.477	0.2758109145955734	0.2611801078031338	0.2830704268550249	0.1164693961074925	0.0795620851786279	0.1670912868023093
1.478	0.2735874296121773	0.2598012442142787	0.2847088252092001	0.1142045507106678	0.0811350258429438	0.1667949386740772
1.479	0.271408284068763	0.2584446223036761	0.286385860734709	0.112005686319492	0.082685979207191	0.1665106738981223
1.48	0.2692723460293685	0.2571105641904901	0.2880993311802712	0.109873179623436	0.0842147039862627	0.1662406694568761
1.481	0.2671784831278772	0.2557994017337918	0.2898469609895666	0.1078073866558425	0.0857210024442136	0.1659871393175755
1.482	0.2651255636008496	0.2545114752045257	0.2916264028684106	0.1058086418406969	0.0872047190256249	0.1657523335483605
1.483	0.2631124572483601	0.2532471319255444	0.2934352395329523	0.1038772570116428	0.0886657389749005	0.1655385373935914
1.484	0.2611380363282092	0.2520067248838826	0.295270985641026	0.1020135204079177	0.0901039869455636	0.1653480703061572
1.485	0.2592011763890907	0.2507906113195324	0.2971310899080717	0.1002176956521178	0.0915194256015069	0.1651832849345644
1.486	0.2573007570480647	0.2495991512954626	0.2990129374091836	0.0984900207145395	0.0929120542120804	0.1650465660626334
1.487	0.2554356627173507	0.2484327062531608	0.3009138520679595	0.0968307068688736	0.0942819072427627	0.1649403294997244
1.488	0.2536047832849527	0.2472916375585965	0.302831099332398	0.09523993764366	0.0956290529431742	0.1648670209193021
1.489	0.2518070147532324	0.246176305042867	0.3047618890373912	0.0937178677738229	0.0969535919341316	0.1648291146437198
1.49	0.250041259839088	0.245087065542084	0.3067033784524285	0.0922646221562921	0.0982556557955719	0.1648291123729784
1.491	0.2483064285389898	0.2440242714404069	0.3086526755134441	0.0908802948134833	0.0995354056572026	0.1648695418551869
1.492	0.2466014386617553	0.2429882692202994	0.3106068422368277	0.0895649478683306	0.1007930307937824	0.1649529554963138
1.493	0.2449252163313694	0.2419793980238529	0.3125628983136112	0.0883186105342857	0.1020287472268456	0.1650819289066804
1.494	0.2432766964615951	0.2409979882289757	0.314517824881646	0.0871412781236706	0.1032427963345722	0.1652590593815475
1.495	0.2416548232035655	0.2400443600447245	0.3164685684724438	0.0860329110774677	0.1044354434712928	0.165486964313129
1.496	0.2400585503671325	0.2391188221294062	0.3184120451289324	0.0849934340194655	0.1056069765979711	0.1657682795311301
1.497	0.2384868418164474	0.2382216702356514	0.3203451446891077	0.084022734837518	0.1067577049248611	0.1661056575688091
1.498	0.2369386718403415	0.2373531858857435	0.3222647352298518	0.0831206637945381	0.1078879575674633	0.1665017658512305
1.499	0.2354130254982734	0.2365136350803988	0.3241676676643784	0.0822870326714782	0.1089980822168501	0.1669592848022474
1.5	0.2339088989430945	0.2357032670440807	0.3260507804862641	0.0815216139445865	0.1100884438254963	0.1674809058666739
1.5010000000000001	0.2324252997224621	0.2349223130090653	0.3279109046524624	0.0808241399987522	0.1111594233096541	0.1680693294441317
1.502	0.2309612470611412	0.2341709850411568	0.3297448685980675	0.0801943023787966	0.1122114162694155	0.1687272627312315
1.5030000000000001	0.2295157721269145	0.2334494749092382	0.3315495033747896	0.0796317510803666	0.1132448317275398	0.169457417468917
1.504	0.2280879182830089	0.2327579530012144	0.3333216479049292	0.0791360938821521	0.1142600908883973	0.1702625075920605
1.5050000000000001	0.2266767413299508	0.2320965672889068	0.3350581543416905	0.0787068957210043	0.1152576259184908	0.1711452467786313
1.506	0.2252813097398917	0.2314654423437266	0.3367558935258698	0.078343678111596	0.1162378787502795	0.1721083458957562
1.5070000000000001	0.2239007048863224	0.2308646784058252	0.3384117605281701	0.0780459186122204	0.1172012999110507	0.1731545103399322
1.508	0.2225340212722587	0.2302943505077749	0.3400226802654998	0.0778130503383	0.1181483473785888	0.174286437268656
1.5090000000000001	0.2211803667599161	0.2297545076549192	0.3415856131789596	0.0776444615252203	0.1190794854651017	0.1755068127206948
1.51	0.2198388628045896	0.2292451720635875	0.3430975609615419	0.0775394951422335	0.1199951837306794	0.1768183086225467
1.5110000000000001	0.2185086446951122	0.2287663384586129	0.3445555723220784	0.077497448559194	0.1208959159271768	0.178223579679084
1.512	0.2171888618028258	0.2283179734315976	0.3459567487727457	0.077517573268015	0.1217821589732224	0.1797252601473308
